<?xml version="1.0" standalone="no"?><!DOCTYPE svg PUBLIC "-//W3C//DTD SVG 1.1//EN" "http://www.w3.org/Graphics/SVG/1.1/DTD/svg11.dtd"><svg width="100%" height="100%" viewBox="0 0 492 495" version="1.1" xmlns="http://www.w3.org/2000/svg" xmlns:xlink="http://www.w3.org/1999/xlink" xml:space="preserve" style="fill-rule:evenodd;clip-rule:evenodd;stroke-linejoin:round;stroke-miterlimit:1.41421;"><g id="Rocket"><path d="M245.557,0c135.617,0 245.556,109.939 245.556,245.556c0,135.618 -109.939,245.557 -245.556,245.557c-135.618,0 -245.557,-109.939 -245.557,-245.557c0,-135.617 109.939,-245.556 245.557,-245.556Z" style="fill:#ffa600;"/><path d="M187.382,331.196c10.312,7.776 -8.977,50.741 -43.083,95.964c-34.105,45.222 -54.868,52.041 -80.424,67.802c9.325,-30.487 8.978,-50.741 43.083,-95.964c34.106,-45.223 70.112,-75.579 80.424,-67.802Z" style="fill:#ffc200;"/><path d="M392.265,59.526c-46.038,2.588 -109.775,34.514 -159.954,101.049c-16.425,21.781 -31.187,45.771 -42.096,68.572c-23.217,5.607 -57.798,11.632 -70.604,17.28c-27.111,44.438 -25.078,89.827 -31.209,130.163c26.212,-39.093 41.111,-55.43 83.035,-75.83c1.518,13.665 6.582,24.346 15.816,30.607c8.558,7.157 20.22,9.09 33.776,6.793c-8.09,45.917 -19.703,64.733 -50.083,100.68c37.096,-16.981 81.296,-27.505 116.568,-65.787c1.911,-13.865 -1.802,-48.77 -2.794,-72.634c18.925,-16.756 37.933,-37.544 54.358,-59.324c50.179,-66.536 63.354,-136.594 53.187,-181.569ZM346.435,120.295c3.743,2.823 4.49,8.146 1.666,11.889c-2.823,3.743 -8.146,4.489 -11.888,1.666c-3.744,-2.823 -4.49,-8.146 -1.667,-11.889c2.823,-3.743 8.146,-4.489 11.889,-1.666Z" style="fill:#fff;"/><clipPath id="_clip1"><path d="M392.265,59.526c-46.038,2.588 -109.775,34.514 -159.954,101.049c-16.425,21.781 -31.187,45.771 -42.096,68.572c-23.217,5.607 -57.798,11.632 -70.604,17.28c-27.111,44.438 -25.078,89.827 -31.209,130.163c26.212,-39.093 41.111,-55.43 83.035,-75.83c1.518,13.665 6.582,24.346 15.816,30.607c8.558,7.157 20.22,9.09 33.776,6.793c-8.09,45.917 -19.703,64.733 -50.083,100.68c37.096,-16.981 81.296,-27.505 116.568,-65.787c1.911,-13.865 -1.802,-48.77 -2.794,-72.634c18.925,-16.756 37.933,-37.544 54.358,-59.324c50.179,-66.536 63.354,-136.594 53.187,-181.569ZM346.435,120.295c3.743,2.823 4.49,8.146 1.666,11.889c-2.823,3.743 -8.146,4.489 -11.888,1.666c-3.744,-2.823 -4.49,-8.146 -1.667,-11.889c2.823,-3.743 8.146,-4.489 11.889,-1.666Z"/></clipPath><g clip-path="url(#_clip1)"><path d="M223.069,246.955l-17.693,35.659l23.408,17.685l29.469,-26.761l53.866,16.07l-2.144,7.187l-49.812,-14.861l-30.94,28.097l-33.329,-25.181l18.576,-37.439l-27.903,-43.857l6.328,-4.026l30.174,47.427Z" style="fill:#ffa600;"/></g></g></svg>